<?xml version="1.0" encoding="UTF-8"?>
<svg width="2000" height="1500" xmlns="http://www.w3.org/2000/svg">
  <rect width="2000" height="1500" fill="#fefefe"/>
  <rect width="2000" height="260" fill="#3ca4d7"/>
  <text x="100" y="155" font-family="Arial, sans-serif" font-size="80" font-weight="bold" fill="white">Wedding Water Bottle Set</text>
  <text x="100" y="225" font-family="Arial, sans-serif" font-size="42" fill="white" opacity="0.9">Bridesmaids + Bridal Party</text>
  <text x="1900" y="225" font-family="Arial, sans-serif" font-size="36" fill="white" opacity="0.85" text-anchor="end">SHELZY'S DESIGNS</text>
  <!-- Three bottles -->
  <!-- Bottle 1 -->
  <rect x="400" y="330" width="240" height="55" rx="15" fill="#2d2d2d"/>
  <rect x="385" y="375" width="270" height="780" rx="50" fill="#3ca4d7"/>
  <rect x="415" y="405" width="210" height="720" rx="42" fill="#6bbde1"/>
  <rect x="440" y="420" width="50" height="680" rx="25" fill="white" opacity="0.22"/>
  <rect x="415" y="520" width="210" height="150" rx="10" fill="white" opacity="0.9"/>
  <text x="520" y="590" font-family="Arial, sans-serif" font-size="32" fill="#3ca4d7" text-anchor="middle" font-weight="bold">BRIDE</text>
  <text x="520" y="630" font-family="Arial, sans-serif" font-size="22" fill="#555" text-anchor="middle">Sarah</text>
  <!-- Bottle 2 -->
  <rect x="880" y="330" width="240" height="55" rx="15" fill="#2d2d2d"/>
  <rect x="865" y="375" width="270" height="780" rx="50" fill="#fb5887"/>
  <rect x="895" y="405" width="210" height="720" rx="42" fill="#fc7fa8"/>
  <rect x="920" y="420" width="50" height="680" rx="25" fill="white" opacity="0.22"/>
  <rect x="895" y="520" width="210" height="150" rx="10" fill="white" opacity="0.9"/>
  <text x="1000" y="590" font-family="Arial, sans-serif" font-size="30" fill="#fb5887" text-anchor="middle" font-weight="bold">MAID OF HONOR</text>
  <text x="1000" y="630" font-family="Arial, sans-serif" font-size="22" fill="#555" text-anchor="middle">Jessica</text>
  <!-- Bottle 3 -->
  <rect x="1360" y="330" width="240" height="55" rx="15" fill="#2d2d2d"/>
  <rect x="1345" y="375" width="270" height="780" rx="50" fill="#8adbde"/>
  <rect x="1375" y="405" width="210" height="720" rx="42" fill="#a8e6e9"/>
  <rect x="1400" y="420" width="50" height="680" rx="25" fill="white" opacity="0.22"/>
  <rect x="1375" y="520" width="210" height="150" rx="10" fill="white" opacity="0.9"/>
  <text x="1480" y="590" font-family="Arial, sans-serif" font-size="30" fill="#2d7a7c" text-anchor="middle" font-weight="bold">BRIDESMAID</text>
  <text x="1480" y="630" font-family="Arial, sans-serif" font-size="22" fill="#555" text-anchor="middle">Emma</text>
  <!-- Features strip -->
  <rect x="60" y="1340" width="1880" height="120" fill="#f9f9f9" rx="10"/>
  <text x="250" y="1415" font-family="Arial, sans-serif" font-size="34" fill="#2d2d2d" text-anchor="middle">Matching Sets Available</text>
  <text x="800" y="1415" font-family="Arial, sans-serif" font-size="34" fill="#2d2d2d" text-anchor="middle">Free Personalization</text>
  <text x="1300" y="1415" font-family="Arial, sans-serif" font-size="34" fill="#2d2d2d" text-anchor="middle">Ships in 3-5 Days</text>
  <text x="1800" y="1415" font-family="Arial, sans-serif" font-size="34" fill="#fb5887" text-anchor="middle" font-weight="bold">$34.99 ea</text>
</svg>
